<mxfile host="app.diagrams.net" modified="2022-11-01T06:05:39.518Z" agent="5.0 (Windows NT 10.0; Win64; x64) AppleWebKit/537.36 (KHTML, like Gecko) Chrome/106.0.0.0 Safari/537.36" etag="JmeiYfZPUSY0pXh5uXYw" version="20.5.1" type="github">
  <diagram id="piDafpqhtRUU5qUU-vj8" name="Page-1">
    <mxGraphModel dx="2062" dy="1065" grid="1" gridSize="10" guides="1" tooltips="1" connect="1" arrows="1" fold="1" page="1" pageScale="1" pageWidth="827" pageHeight="1169" math="0" shadow="0">
      <root>
        <mxCell id="0" />
        <mxCell id="1" parent="0" />
        <mxCell id="8962rQQDY3VNNf6We3Pp-1" value="" style="strokeWidth=1;shadow=0;dashed=0;align=center;html=1;shape=mxgraph.mockup.containers.browserWindow;rSize=0;strokeColor2=#008cff;strokeColor3=#c4c4c4;mainText=,;recursiveResize=0;strokeColor=#FFFFFF;fontColor=#FFFFFF;" parent="1" vertex="1">
          <mxGeometry x="10" y="10" width="1150" height="1330" as="geometry" />
        </mxCell>
        <mxCell id="8962rQQDY3VNNf6We3Pp-2" value="Page 1" style="strokeWidth=1;shadow=0;dashed=0;align=center;html=1;shape=mxgraph.mockup.containers.anchor;fontSize=17;fontColor=#666666;align=left;" parent="8962rQQDY3VNNf6We3Pp-1" vertex="1">
          <mxGeometry x="60" y="12" width="110" height="26" as="geometry" />
        </mxCell>
        <mxCell id="8962rQQDY3VNNf6We3Pp-3" value="https://www.example.com" style="strokeWidth=1;shadow=0;dashed=0;align=center;html=1;shape=mxgraph.mockup.containers.anchor;rSize=0;fontSize=17;fontColor=#666666;align=left;" parent="8962rQQDY3VNNf6We3Pp-1" vertex="1">
          <mxGeometry x="130" y="60" width="250" height="26" as="geometry" />
        </mxCell>
        <mxCell id="8962rQQDY3VNNf6We3Pp-4" value="" style="verticalLabelPosition=bottom;shadow=0;dashed=0;align=center;html=1;verticalAlign=top;strokeWidth=1;shape=mxgraph.mockup.containers.videoPlayer;strokeColor=#666666;strokeColor2=#008cff;strokeColor3=#c4c4c4;textColor=#666666;fillColor2=#008cff;barHeight=30;barPos=20;" parent="8962rQQDY3VNNf6We3Pp-1" vertex="1">
          <mxGeometry y="110" width="1150" height="590" as="geometry" />
        </mxCell>
        <mxCell id="8962rQQDY3VNNf6We3Pp-6" value="Dropdown" style="rounded=1;fillColor=#F1F2F4;strokeColor=none;html=1;fontColor=#596780;align=left;fontSize=10;spacingLeft=10" parent="8962rQQDY3VNNf6We3Pp-1" vertex="1">
          <mxGeometry x="900" y="127" width="90" height="33" as="geometry" />
        </mxCell>
        <mxCell id="8962rQQDY3VNNf6We3Pp-7" value="" style="shape=triangle;direction=south;fillColor=#596780;strokeColor=none;html=1" parent="8962rQQDY3VNNf6We3Pp-6" vertex="1">
          <mxGeometry x="1" y="0.5" width="12" height="6" relative="1" as="geometry">
            <mxPoint x="-20" y="-3" as="offset" />
          </mxGeometry>
        </mxCell>
        <mxCell id="8962rQQDY3VNNf6We3Pp-8" value="Dropdown" style="rounded=1;fillColor=#F1F2F4;strokeColor=none;html=1;fontColor=#596780;align=left;fontSize=10;spacingLeft=10" parent="8962rQQDY3VNNf6We3Pp-1" vertex="1">
          <mxGeometry x="790" y="127" width="90" height="33" as="geometry" />
        </mxCell>
        <mxCell id="8962rQQDY3VNNf6We3Pp-9" value="" style="shape=triangle;direction=south;fillColor=#596780;strokeColor=none;html=1" parent="8962rQQDY3VNNf6We3Pp-8" vertex="1">
          <mxGeometry x="1" y="0.5" width="12" height="6" relative="1" as="geometry">
            <mxPoint x="-20" y="-3" as="offset" />
          </mxGeometry>
        </mxCell>
        <mxCell id="8962rQQDY3VNNf6We3Pp-10" value="Dropdown" style="rounded=1;fillColor=#F1F2F4;strokeColor=none;html=1;fontColor=#596780;align=left;fontSize=10;spacingLeft=10" parent="8962rQQDY3VNNf6We3Pp-1" vertex="1">
          <mxGeometry x="680" y="127" width="90" height="33" as="geometry" />
        </mxCell>
        <mxCell id="8962rQQDY3VNNf6We3Pp-11" value="" style="shape=triangle;direction=south;fillColor=#596780;strokeColor=none;html=1" parent="8962rQQDY3VNNf6We3Pp-10" vertex="1">
          <mxGeometry x="1" y="0.5" width="12" height="6" relative="1" as="geometry">
            <mxPoint x="-20" y="-3" as="offset" />
          </mxGeometry>
        </mxCell>
        <mxCell id="8962rQQDY3VNNf6We3Pp-12" value="Dropdown" style="rounded=1;fillColor=#F1F2F4;strokeColor=none;html=1;fontColor=#596780;align=left;fontSize=10;spacingLeft=10" parent="8962rQQDY3VNNf6We3Pp-1" vertex="1">
          <mxGeometry x="570" y="127" width="90" height="33" as="geometry" />
        </mxCell>
        <mxCell id="8962rQQDY3VNNf6We3Pp-13" value="" style="shape=triangle;direction=south;fillColor=#596780;strokeColor=none;html=1" parent="8962rQQDY3VNNf6We3Pp-12" vertex="1">
          <mxGeometry x="1" y="0.5" width="12" height="6" relative="1" as="geometry">
            <mxPoint x="-20" y="-3" as="offset" />
          </mxGeometry>
        </mxCell>
        <mxCell id="8962rQQDY3VNNf6We3Pp-14" value="Try now" style="rounded=1;align=center;strokeColor=none;html=1;fontColor=#ffffff;fontSize=12;fillColor=#008CFF;" parent="8962rQQDY3VNNf6We3Pp-1" vertex="1">
          <mxGeometry x="1045" y="127" width="86" height="33" as="geometry" />
        </mxCell>
        <mxCell id="8962rQQDY3VNNf6We3Pp-16" value="The d company" style="text;html=1;strokeColor=none;fillColor=none;align=center;verticalAlign=middle;whiteSpace=wrap;rounded=0;fontSize=13;fontColor=#0066CC;" parent="8962rQQDY3VNNf6We3Pp-1" vertex="1">
          <mxGeometry x="140" y="130" width="100" height="20" as="geometry" />
        </mxCell>
        <mxCell id="8962rQQDY3VNNf6We3Pp-17" value="" style="html=1;verticalLabelPosition=bottom;align=center;labelBackgroundColor=#ffffff;verticalAlign=top;strokeWidth=2;strokeColor=#0080F0;shadow=0;dashed=0;shape=mxgraph.ios7.icons.video_conversation;fontSize=13;fontColor=#0066CC;" parent="8962rQQDY3VNNf6We3Pp-1" vertex="1">
          <mxGeometry x="420" y="320" width="310" height="170" as="geometry" />
        </mxCell>
        <mxCell id="8962rQQDY3VNNf6We3Pp-18" value="" style="verticalLabelPosition=bottom;shadow=0;dashed=0;align=center;html=1;verticalAlign=top;strokeWidth=1;shape=mxgraph.mockup.graphics.simpleIcon;strokeColor=#999999;fontSize=13;fontColor=#0066CC;" parent="8962rQQDY3VNNf6We3Pp-1" vertex="1">
          <mxGeometry x="680" y="800" width="50" height="50" as="geometry" />
        </mxCell>
        <mxCell id="8962rQQDY3VNNf6We3Pp-19" value="" style="verticalLabelPosition=bottom;shadow=0;dashed=0;align=center;html=1;verticalAlign=top;strokeWidth=1;shape=mxgraph.mockup.graphics.simpleIcon;strokeColor=#999999;fontSize=13;fontColor=#0066CC;" parent="8962rQQDY3VNNf6We3Pp-1" vertex="1">
          <mxGeometry x="780" y="800" width="50" height="50" as="geometry" />
        </mxCell>
        <mxCell id="8962rQQDY3VNNf6We3Pp-20" value="" style="verticalLabelPosition=bottom;shadow=0;dashed=0;align=center;html=1;verticalAlign=top;strokeWidth=1;shape=mxgraph.mockup.graphics.simpleIcon;strokeColor=#999999;fontSize=13;fontColor=#0066CC;" parent="8962rQQDY3VNNf6We3Pp-1" vertex="1">
          <mxGeometry x="880" y="800" width="50" height="50" as="geometry" />
        </mxCell>
        <mxCell id="8962rQQDY3VNNf6We3Pp-21" value="" style="verticalLabelPosition=bottom;shadow=0;dashed=0;align=center;html=1;verticalAlign=top;strokeWidth=1;shape=mxgraph.mockup.graphics.simpleIcon;strokeColor=#999999;fontSize=13;fontColor=#0066CC;" parent="8962rQQDY3VNNf6We3Pp-1" vertex="1">
          <mxGeometry x="680" y="890" width="50" height="50" as="geometry" />
        </mxCell>
        <mxCell id="8962rQQDY3VNNf6We3Pp-22" value="" style="verticalLabelPosition=bottom;shadow=0;dashed=0;align=center;html=1;verticalAlign=top;strokeWidth=1;shape=mxgraph.mockup.graphics.simpleIcon;strokeColor=#999999;fontSize=13;fontColor=#0066CC;" parent="8962rQQDY3VNNf6We3Pp-1" vertex="1">
          <mxGeometry x="780" y="890" width="50" height="50" as="geometry" />
        </mxCell>
        <mxCell id="8962rQQDY3VNNf6We3Pp-23" value="" style="verticalLabelPosition=bottom;shadow=0;dashed=0;align=center;html=1;verticalAlign=top;strokeWidth=1;shape=mxgraph.mockup.graphics.simpleIcon;strokeColor=#999999;fontSize=13;fontColor=#0066CC;" parent="8962rQQDY3VNNf6We3Pp-1" vertex="1">
          <mxGeometry x="880" y="890" width="50" height="50" as="geometry" />
        </mxCell>
        <mxCell id="8962rQQDY3VNNf6We3Pp-24" value="" style="verticalLabelPosition=bottom;shadow=0;dashed=0;align=center;html=1;verticalAlign=top;strokeWidth=1;shape=mxgraph.mockup.graphics.simpleIcon;strokeColor=#999999;fontSize=13;fontColor=#0066CC;" parent="8962rQQDY3VNNf6We3Pp-1" vertex="1">
          <mxGeometry x="680" y="980" width="50" height="50" as="geometry" />
        </mxCell>
        <mxCell id="8962rQQDY3VNNf6We3Pp-25" value="" style="verticalLabelPosition=bottom;shadow=0;dashed=0;align=center;html=1;verticalAlign=top;strokeWidth=1;shape=mxgraph.mockup.graphics.simpleIcon;strokeColor=#999999;fontSize=13;fontColor=#0066CC;" parent="8962rQQDY3VNNf6We3Pp-1" vertex="1">
          <mxGeometry x="780" y="980" width="50" height="50" as="geometry" />
        </mxCell>
        <mxCell id="8962rQQDY3VNNf6We3Pp-26" value="" style="verticalLabelPosition=bottom;shadow=0;dashed=0;align=center;html=1;verticalAlign=top;strokeWidth=1;shape=mxgraph.mockup.graphics.simpleIcon;strokeColor=#999999;fontSize=13;fontColor=#0066CC;" parent="8962rQQDY3VNNf6We3Pp-1" vertex="1">
          <mxGeometry x="880" y="980" width="50" height="50" as="geometry" />
        </mxCell>
        <mxCell id="8962rQQDY3VNNf6We3Pp-27" value="" style="strokeWidth=1;shadow=0;dashed=0;align=center;html=1;shape=mxgraph.mockup.buttons.multiButton;fillColor=#008cff;strokeColor=#666666;mainText=;subText=;fontSize=13;fontColor=#0066CC;" parent="8962rQQDY3VNNf6We3Pp-1" vertex="1">
          <mxGeometry x="204" y="810" width="200" height="210" as="geometry" />
        </mxCell>
        <mxCell id="8962rQQDY3VNNf6We3Pp-28" value="These companies&lt;br&gt;trust us" style="strokeWidth=1;shadow=0;dashed=0;align=center;html=1;shape=mxgraph.mockup.anchor;fontSize=16;fontColor=#ffffff;fontStyle=1;whiteSpace=wrap;" parent="8962rQQDY3VNNf6We3Pp-27" vertex="1">
          <mxGeometry y="33.6" width="200" height="84" as="geometry" />
        </mxCell>
        <mxCell id="8962rQQDY3VNNf6We3Pp-29" value="" style="strokeWidth=1;shadow=0;dashed=0;align=center;html=1;shape=mxgraph.mockup.anchor;fontSize=12;fontColor=#ffffff;fontStyle=1;whiteSpace=wrap;" parent="8962rQQDY3VNNf6We3Pp-27" vertex="1">
          <mxGeometry y="126" width="200" height="42" as="geometry" />
        </mxCell>
        <mxCell id="8962rQQDY3VNNf6We3Pp-35" value="" style="verticalLabelPosition=bottom;shadow=0;dashed=0;align=center;html=1;verticalAlign=top;strokeWidth=1;shape=mxgraph.mockup.markup.line;strokeColor=#999999;fillColor=#008CFF;fontSize=13;fontColor=#0066CC;" parent="8962rQQDY3VNNf6We3Pp-1" vertex="1">
          <mxGeometry y="1180" width="1150" height="20" as="geometry" />
        </mxCell>
        <mxCell id="8962rQQDY3VNNf6We3Pp-30" value="" style="shape=rect;fillColor=#ffffff;strokeColor=#eeeeee;shadow=0;fontSize=13;fontColor=#0066CC;" parent="8962rQQDY3VNNf6We3Pp-1" vertex="1">
          <mxGeometry x="425" y="1230" width="300" height="40" as="geometry" />
        </mxCell>
        <mxCell id="8962rQQDY3VNNf6We3Pp-31" value="BUTTON" style="shape=rect;strokeColor=none;fillColor=none;fontSize=12;fontColor=#2196F3;dashed=0;" parent="8962rQQDY3VNNf6We3Pp-30" vertex="1">
          <mxGeometry width="75" height="40" as="geometry" />
        </mxCell>
        <mxCell id="8962rQQDY3VNNf6We3Pp-32" value="BUTTON" style="shape=rect;strokeColor=none;fillColor=none;fontSize=12;fontColor=#2196F3;dashed=0;" parent="8962rQQDY3VNNf6We3Pp-30" vertex="1">
          <mxGeometry x="75" width="75" height="40" as="geometry" />
        </mxCell>
        <mxCell id="8962rQQDY3VNNf6We3Pp-33" value="BUTTON" style="shape=rect;strokeColor=none;fillColor=none;fontSize=12;fontColor=#2196F3;dashed=0;" parent="8962rQQDY3VNNf6We3Pp-30" vertex="1">
          <mxGeometry x="150" width="75" height="40" as="geometry" />
        </mxCell>
        <mxCell id="8962rQQDY3VNNf6We3Pp-34" value="BUTTON" style="shape=rect;strokeColor=none;fillColor=none;fontSize=12;fontColor=#2196F3;dashed=0;" parent="8962rQQDY3VNNf6We3Pp-30" vertex="1">
          <mxGeometry x="225" width="75" height="40" as="geometry" />
        </mxCell>
        <mxCell id="8962rQQDY3VNNf6We3Pp-36" value="" style="shape=image;html=1;verticalAlign=top;verticalLabelPosition=bottom;labelBackgroundColor=#ffffff;imageAspect=0;aspect=fixed;image=https://cdn3.iconfinder.com/data/icons/peelicons-vol-1/50/LinkedIn-128.png;fillColor=#008CFF;fontSize=13;fontColor=#0066CC;" parent="8962rQQDY3VNNf6We3Pp-1" vertex="1">
          <mxGeometry x="870" y="1235" width="30" height="30" as="geometry" />
        </mxCell>
        <mxCell id="8962rQQDY3VNNf6We3Pp-37" value="" style="shape=image;html=1;verticalAlign=top;verticalLabelPosition=bottom;labelBackgroundColor=#ffffff;imageAspect=0;aspect=fixed;image=https://cdn3.iconfinder.com/data/icons/peelicons-vol-1/50/Facebook-128.png;fillColor=#008CFF;fontSize=13;fontColor=#0066CC;" parent="8962rQQDY3VNNf6We3Pp-1" vertex="1">
          <mxGeometry x="920" y="1235" width="30" height="30" as="geometry" />
        </mxCell>
        <mxCell id="8962rQQDY3VNNf6We3Pp-38" value="" style="shape=image;html=1;verticalAlign=top;verticalLabelPosition=bottom;labelBackgroundColor=#ffffff;imageAspect=0;aspect=fixed;image=https://cdn3.iconfinder.com/data/icons/peelicons-vol-1/50/Twitter-128.png;fillColor=#008CFF;fontSize=13;fontColor=#0066CC;" parent="8962rQQDY3VNNf6We3Pp-1" vertex="1">
          <mxGeometry x="970" y="1235" width="30" height="30" as="geometry" />
        </mxCell>
        <mxCell id="seymav8gBYocV3_De4xC-2" value="d" style="text;html=1;align=center;verticalAlign=middle;resizable=0;points=[];autosize=1;fontSize=37;fontFamily=Tahoma;fillColor=#008CFF;fontColor=#FFFFFF;" parent="8962rQQDY3VNNf6We3Pp-1" vertex="1">
          <mxGeometry x="100" y="110" width="40" height="50" as="geometry" />
        </mxCell>
        <object label="" DiscordApp="957107866324570153" id="Vnu6diiviEGlQfB0yTXM-1">
          <mxCell style="whiteSpace=wrap;html=1;perimeterSpacing=15;rounded=1;strokeWidth=3;&#xa;/**&#xa; * Name:        DiscordIntegrator&#xa; * Author:      KockaAdmiralac &lt;wikia@kocka.tech&gt;&#xa; * Description: Allows intergration with Discord [https://discord.com]&#xa; */&#xa;(function() {&#xa;    &#39;use strict&#39;;&#xa;    var mconfig = mw.config.get([&#xa;        &#39;wgContentLanguage&#39;,&#xa;        &#39;wgUserLanguage&#39;,&#xa;        &#39;wgUserName&#39;&#xa;    ]);&#xa;    if (window.DiscordIntegratorLoaded) {&#xa;        return;&#xa;    }&#xa;    window.DiscordIntegratorLoaded = true;&#xa;    /**&#xa;     * Main object&#xa;     * @static&#xa;     */&#xa;    var DiscordIntegrator = {&#xa;        /**&#xa;         * Configuration for the plugin&#xa;         * @property config&#xa;         * @type {Object}&#xa;         */&#xa;        config: (window.DiscordIntegratorConfig || {}).siderail || {},&#xa;        /**&#xa;         * Preloads translations.&#xa;         */&#xa;        imported: function(i18n) {&#xa;            $.when(&#xa;                window.dev.i18n.loadMessages(&#39;DiscordIntegrator&#39;, {&#xa;                    cacheVersion: 3&#xa;                }),&#xa;                mw.loader.using(&#39;mediawiki.api&#39;)&#xa;            ).then($.proxy(this.preload, this));&#xa;        },&#xa;        /**&#xa;         * Preload resources&#xa;         */&#xa;        preload: function(i18n) {&#xa;            this.i18n = i18n;&#xa;            mw.hook(&#39;wikipage.content&#39;).add($.proxy(this.insertToContent, this));&#xa;            this.api = new mw.Api();&#xa;            this.api.get({&#xa;                action: &#39;query&#39;,&#xa;                meta: &#39;allmessages&#39;,&#xa;                ammessages: [&#xa;                    &#39;id&#39;,&#xa;                    &#39;title&#39;,&#xa;                    &#39;moduleHeight&#39;,&#xa;                    &#39;theme&#39;,&#xa;                    &#39;width&#39;,&#xa;                    &#39;height&#39;,&#xa;                    &#39;text&#39;,&#xa;                    &#39;logged-in&#39;,&#xa;                    &#39;footer&#39;,&#xa;                    &#39;username&#39;&#xa;                ].map(function(el) {&#xa;                    return &#39;Custom-DiscordIntegrator-config-&#39; + el;&#xa;                }).join(&#39;|&#39;),&#xa;                amlang: mconfig.wgUserLanguage === &#39;qqx&#39; ?&#xa;                    mconfig.wgContentLanguage :&#xa;                    mconfig.wgUserLanguage,&#xa;                uselang: &#39;content&#39;, // T97096&#xa;                smaxage: 300,&#xa;                maxage: 300&#xa;            }).done($.proxy(function(d) {&#xa;                if (!d.error) {&#xa;                    d.query.allmessages.forEach(function(el) {&#xa;                        if(el[&#39;*&#39;]) {&#xa;                            this.config[el.name.substring(32)] = el[&#39;*&#39;];&#xa;                        }&#xa;                    }, this);&#xa;                    this._loading = 0;&#xa;                    [&#39;text&#39;, &#39;title&#39;, &#39;footer&#39;].forEach(this.parse, this);&#xa;                    if (this._loading === 0) {&#xa;                        this.init();&#xa;                    }&#xa;                }&#xa;            }, this));&#xa;        },&#xa;        /**&#xa;         * Parse the configuration that needs to be parsed&#xa;         */&#xa;        parse: function(msg) {&#xa;            if (this.config[msg]) {&#xa;                ++this._loading;&#xa;                this.api.get({&#xa;                    action: &#39;parse&#39;,&#xa;                    text: this.config[msg]&#xa;                }).done($.proxy(function(d) {&#xa;                    if (!d.error) {&#xa;                        this.config[msg] = d.parse.text[&#39;*&#39;];&#xa;                        if (--this._loading === 0) {&#xa;                            this.init();&#xa;                        }&#xa;                    }&#xa;                }, this));&#xa;            }&#xa;        },&#xa;        /**&#xa;         * Initializing&#xa;         */&#xa;        init: function() {&#xa;            if (this.config.id &amp;&amp; $(&#39;#WikiaRail&#39;).length &gt; 0) {&#xa;                var clas = $(&#39;#WikiaRail&#39;).attr(&#39;class&#39;);&#xa;                if (clas) {&#xa;                    var classSplit = clas.split(/\s+/);&#xa;                    if (classSplit.indexOf(&#39;loaded&#39;) === -1 &amp;&amp; classSplit.indexOf(&#39;is-ready&#39;) === -1) {&#xa;                        $(&#39;#WikiaRail&#39;).on(&#39;afterLoad.rail&#39;, $.proxy(this.insertToSiderail, this));&#xa;                    } else {&#xa;                        this.insertToSiderail();&#xa;                    }&#xa;                } else {&#xa;                    this.insertToSiderail();&#xa;                }&#xa;            }&#xa;        },&#xa;        /**&#xa;         * Inserting the widget to siderail&#xa;         */&#xa;        insertToSiderail: function() {&#xa;            var filter = $(&#39;#top-right-boxad-wrapper, #top-boxad-wrapper, #NATIVE_TABOOLA_RAIL, .content-review-module&#39;).last();&#xa;            // TODO: Insert some user configuration here&#xa;            var el = $(&#39;&lt;div&gt;&#39;, { class: &#39;DiscordIntegratorModule rail-module&#39; });&#xa;            if (this.config.title) {&#xa;                el.append(&#xa;                    $(&#39;&lt;h2&gt;&#39;, {&#xa;                        &#39;class&#39;: &#39;activity-heading&#39;,&#xa;                        html: this.config.title.trim()&#xa;                    })&#xa;                );&#xa;            }&#xa;            if (this.config.text) {&#xa;                el.append(&#xa;                    $(&#39;&lt;p&gt;&#39;, {&#xa;                        id: &#39;DiscordIntegratorModuleText&#39;,&#xa;                        html: this.config.text&#xa;                    })&#xa;                );&#xa;            }&#xa;            el.append(this.generateContent(this.config));&#xa;            if (this.config.footer) {&#xa;                el.append(&#xa;                    $(&#39;&lt;p&gt;&#39;, {&#xa;                        id: &#39;DiscordIntegratorModuleFooter&#39;,&#xa;                        html: this.config.footer&#xa;                    })&#xa;                );&#xa;            }&#xa;            if (filter.length &gt; 0) {&#xa;                el.insertAfter(filter);&#xa;            } else {&#xa;                $(&#39;#WikiaRail&#39;).prepend(el);&#xa;            }&#xa;            if (this.config.moduleHeight) {&#xa;                mw.util.addCSS(&#39;.DiscordIntegratorModule { height: &#39; + Number(this.config.moduleHeight) + &#39;px; }&#39;);&#xa;            }&#xa;            mw.hook(&#39;DiscordIntegrator.added&#39;).fire(el);&#xa;        },&#xa;        /**&#xa;         * Finding the designated places in content&#xa;         * in which to place the widget and placing it&#xa;         */&#xa;        insertToContent: function($content) {&#xa;            $content.find(&#39;.DiscordIntegrator:not(.loaded)&#39;).each($.proxy(function(cabbage, el) {&#xa;                el = $(el);&#xa;                el.html(this.generateContent(el.data()))&#xa;                  .addClass(&#39;loaded&#39;);&#xa;            }, this));&#xa;        },&#xa;        /**&#xa;         * Determines the theme of the widget.&#xa;         * @param {string} config Configured theme&#xa;         * @return {string} &#39;light&#39; or &#39;dark&#39; depending on the wiki theme and configuration&#xa;         */&#xa;        determineTheme: function(config) {&#xa;            // If explicitly configured to light or dark.&#xa;            if (config === &#39;dark&#39;) {&#xa;                return &#39;dark&#39;;&#xa;            }&#xa;            if (config === &#39;light&#39;) {&#xa;                return &#39;light&#39;;&#xa;            }&#xa;            // If not configured, and the current FandomDesktop theme is set.&#xa;            if ($(&#39;body&#39;).hasClass(&#39;theme-fandomdesktop-light&#39;)) {&#xa;                return &#39;light&#39;;&#xa;            }&#xa;            if ($(&#39;body&#39;).hasClass(&#39;theme-fandomdesktop-dark&#39;)) {&#xa;                return &#39;dark&#39;;&#xa;            }&#xa;            // Otherwise, default to dark.&#xa;            return &#39;dark&#39;;&#xa;        },&#xa;        /**&#xa;         * Generating widget content from an object&#xa;         * @return {string} Content of the widget&#xa;         */&#xa;        generateContent: function(config) {&#xa;            if (!config.id || !String(config.id).match(/\d{17,19}/)) {&#xa;                return this.i18n.msg(&#39;error&#39;).parse();&#xa;            }&#xa;            if (&#xa;                (&#xa;                    config.loggedIn === true ||&#xa;                    Boolean(config[&#39;logged-in&#39;]) === true &amp;&amp;&#xa;                    config[&#39;logged-in&#39;] !== &#39;false&#39; &amp;&amp;&#xa;                    config[&#39;logged-in&#39;] !== &#39;{{{loggedIn}}}&#39;&#xa;                ) &amp;&amp; !mconfig.wgUserName&#xa;            ) {&#xa;                return this.i18n.msg(&#39;login&#39;).parse();&#xa;            }&#xa;            var username = config.username === &#39;@disabled&#39; ?&#xa;                 &#39;&#39; :&#xa;                 config.username === &#39;@function&#39; &amp;&amp;&#xa;                 typeof window.DiscordIntegratorGetUsername === &#39;function&#39; ?&#xa;                     window.DiscordIntegratorGetUsername() :&#xa;                     config.username || mconfig.wgUserName;&#xa;            return mw.html.element(&#39;iframe&#39;, {&#xa;                src: &#39;https://discord.com/widget?id=&#39; + config.id +&#xa;                     &#39;&amp;theme=&#39; + this.determineTheme(config.theme) +&#xa;                     &#39;&amp;username=&#39; + encodeURIComponent(username),&#xa;                width: config.width || &#39;100%&#39;,&#xa;                height: config.height || &#39;400px&#39;,&#xa;                allowtransparency: &#39;true&#39;,&#xa;                frameborder: &#39;0&#39;,&#xa;                title: this.i18n.msg(&#39;title&#39;).plain()&#xa;            });&#xa;        }&#xa;    };&#xa;    importArticle({&#xa;        type: &#39;script&#39;,&#xa;        article: &#39;u:dev:MediaWiki:I18n-js/code.js&#39;&#xa;    }).then($.proxy(DiscordIntegrator.imported, DiscordIntegrator));&#xa;})();enumerate=0;" vertex="1" parent="1">
            <mxGeometry x="1180" y="120" width="460" height="1020" as="geometry" />
          </mxCell>
        </object>
      </root>
    </mxGraphModel>
  </diagram>
</mxfile>
